<svg width="82" height="24" viewBox="0 0 82 24" fill="none" xmlns="http://www.w3.org/2000/svg">
<mask id="mask0_2165_4990" style="mask-type:luminance" maskUnits="userSpaceOnUse" x="0" y="0" width="82" height="16">
<path d="M81.675 0H0V15.9862H81.675V0Z" fill="white"/>
</mask>
<g mask="url(#mask0_2165_4990)">
<path fill-rule="evenodd" clip-rule="evenodd" d="M2.56787 0.0546302H4.53431V8.19346C3.93344 7.86571 3.38723 7.53804 2.84099 7.15566C2.73174 7.10102 2.67711 7.04641 2.56787 6.93715V7.62939e-06V0.0546302ZM4.53431 13.0549V15.8407H2.56787V12.181C2.6225 12.181 2.67711 12.2356 2.73174 12.2356C2.95023 12.3449 3.16871 12.4541 3.38723 12.5634C3.60572 12.6726 3.8242 12.7272 4.0427 12.8365C4.20657 12.8911 4.37045 12.9457 4.58893 13.0549H4.53431Z" fill="#03045E"/>
<path fill-rule="evenodd" clip-rule="evenodd" d="M6.55518 0.054718H8.52156V9.44992C7.86613 9.39529 7.15602 9.23142 6.55518 9.06754V0.109341V0.054718ZM8.52156 13.8744V15.8409H6.55518V13.6013C7.26528 13.7652 7.81151 13.8198 8.52156 13.8744Z" fill="#03045E"/>
<path fill-rule="evenodd" clip-rule="evenodd" d="M10.5422 0.054718H12.5087V8.95829C11.8532 9.1768 11.1977 9.34067 10.5422 9.39529V0.054718ZM12.5087 13.6013V15.8955H10.5422V13.929C11.1977 13.8744 11.8532 13.7652 12.5087 13.6559V13.6013Z" fill="#03045E"/>
<path fill-rule="evenodd" clip-rule="evenodd" d="M14.5298 0.054718H16.4962V6.93726C16.387 7.04649 16.2232 7.10113 16.1138 7.21036L15.6223 7.53813C15.2399 7.75662 14.9122 7.97505 14.5298 8.13892V0.054718ZM16.4962 12.1265V15.8409H14.5298V12.9458C14.9122 12.782 15.2945 12.6727 15.6223 12.5088C15.95 12.345 16.2777 12.2357 16.5509 12.0718L16.4962 12.1265Z" fill="#03045E"/>
<path fill-rule="evenodd" clip-rule="evenodd" d="M9.4498 10.8155C8.46663 10.8155 7.59263 10.7062 6.7733 10.4877C6.44555 10.4331 5.95394 10.2692 5.68083 10.16C5.51696 10.1053 5.35308 10.0507 5.13459 9.94146C4.4791 9.66833 4.26062 9.55908 3.65977 9.23141C3.22276 9.01291 2.29418 8.46666 1.91182 8.13891L1.09247 7.53804C0.983217 7.59266 0.109247 8.73978 0 8.90366C0.16387 9.12216 1.96643 10.3238 2.3488 10.5423L3.38664 11.0886C3.55051 11.1978 3.76899 11.2525 3.93287 11.3617C5.51696 12.0718 7.3195 12.5634 9.12205 12.5634C10.4877 12.5634 11.307 12.5087 12.5633 12.1811C13.8743 11.8533 15.4584 11.2525 16.6055 10.5423C16.7693 10.4331 16.9332 10.3238 17.1518 10.2146C17.2609 10.16 18.9543 9.06753 19.1182 8.90366C19.0635 8.73978 18.1895 7.70191 18.0803 7.48341C17.8072 7.70191 17.534 7.86579 17.2063 8.08429C15.0214 9.55908 12.3448 10.7608 9.50442 10.7608L9.4498 10.8155Z" fill="#03045E"/>
<path d="M26.0554 14.0383V6.66415H24.6353V5.08009H26.0554V4.91621C26.0554 4.6977 26.0554 4.4246 26.0554 4.15147C26.0554 3.87836 26.1101 3.60526 26.2193 3.33212C26.2739 3.05902 26.4378 2.84052 26.6563 2.56741C26.9294 2.29429 27.2025 2.0758 27.4756 1.96655C27.7487 1.8573 28.0765 1.80268 28.3496 1.80268C28.6227 1.80268 28.8958 1.80268 29.1145 1.80268H30.2614V3.44139H29.2234C28.8412 3.44139 28.5681 3.55062 28.3496 3.71449C28.1857 3.87836 28.0765 4.15147 28.0765 4.47921V5.02544H30.2614V6.60953H28.0765V13.9837H26.0554V14.0383Z" fill="#03045E"/>
<path d="M31.9546 3.71458V1.85739H33.9756V3.71458H31.9546ZM31.9546 14.0384V5.08017H33.9756V14.0384H31.9546Z" fill="#03045E"/>
<path d="M37.198 14.0383V6.66415H35.7778V5.08009H37.198V4.91621C37.198 4.6977 37.198 4.4246 37.198 4.15147C37.198 3.87836 37.2527 3.60526 37.362 3.33212C37.4166 3.05902 37.5805 2.84052 37.7988 2.56741C38.072 2.29429 38.3453 2.0758 38.6182 1.96655C38.8914 1.8573 39.219 1.80268 39.4922 1.80268C39.7654 1.80268 40.0383 1.80268 40.2569 1.80268H41.4041V3.44139H40.3662C39.984 3.44139 39.7107 3.55062 39.4922 3.71449C39.3282 3.87836 39.219 4.15147 39.219 4.47921V5.02544H41.4041V6.60953H39.219V13.9837H37.198V14.0383Z" fill="#03045E"/>
<path d="M47.9592 14.0384C47.3584 14.1477 46.8122 14.2023 46.2112 14.2023C45.665 14.2023 45.1189 14.093 44.6817 13.8745C44.2449 13.656 43.917 13.3829 43.6441 12.9459C43.4255 12.5635 43.3162 12.1812 43.3162 11.7442C43.3162 11.3619 43.3162 10.8702 43.3162 10.3786V6.66423H41.6775V5.08017H43.3162V1.85739H45.2828V5.08017H47.9046V6.66423H45.2828V10.2694C45.2828 10.6517 45.2828 10.9249 45.2828 11.198C45.2828 11.471 45.3374 11.6895 45.4465 11.8534C45.665 12.1812 45.9382 12.345 46.3751 12.3997C46.8122 12.4543 47.3038 12.3997 47.8499 12.345V14.0384H47.9592Z" fill="#03045E"/>
<path d="M56.0981 14.0383V9.72303C56.0981 9.44991 56.0981 9.12216 56.0435 8.79449C55.9888 8.46674 55.9342 8.13899 55.7703 7.81124C55.6063 7.48349 55.4424 7.21038 55.1149 7.04651C54.8416 6.82802 54.4594 6.71876 53.9676 6.71876C53.6947 6.71876 53.4761 6.77341 53.2029 6.82802C52.9299 6.93728 52.7114 7.04651 52.5474 7.26499C52.3288 7.48349 52.1653 7.75662 52.0559 8.08437C51.9467 8.41211 51.892 8.84911 51.892 9.39529V13.9837H49.8711V1.80268H51.6734V6.00868C51.892 5.73555 52.1653 5.51707 52.4928 5.29857C53.0936 4.91621 53.8039 4.75234 54.6233 4.75234C55.2787 4.75234 55.8249 4.86157 56.2617 5.08009C56.6989 5.29857 57.0265 5.57168 57.2997 5.89942C57.5729 6.22717 57.7365 6.60953 57.8459 6.99189C57.9551 7.37424 58.0644 7.75662 58.0644 8.08437C58.1191 8.41211 58.1191 8.68524 58.1191 8.90366V13.9291H56.0981V14.0383Z" fill="#03045E"/>
<path d="M60.4683 14.0384V1.85739H61.6702V14.0384H60.4683Z" fill="#03045E"/>
<path d="M73.3589 14.0384V1.85739H74.5607V6.11799C74.7793 5.84489 74.9973 5.62641 75.2708 5.40792C75.8718 5.02553 76.5267 4.80704 77.4011 4.80704C78.2201 4.80704 78.9305 5.02553 79.5314 5.40792C80.1324 5.84489 80.5692 6.39113 80.8974 7.10123C81.2249 7.81133 81.389 8.63071 81.389 9.50463C81.389 10.3786 81.2249 11.198 80.8974 11.9081C80.5692 12.6182 80.1324 13.1644 79.5314 13.6014C78.9305 14.0384 78.2201 14.2023 77.4011 14.2023C76.5814 14.2023 75.8718 13.9838 75.3255 13.6014C74.9973 13.3829 74.7247 13.0552 74.5061 12.7274V13.9838H73.4135L73.3589 14.0384ZM74.4515 9.50463V9.55925V9.61388C74.4515 10.2694 74.5607 10.9249 74.7793 11.4165C74.9973 11.9627 75.2708 12.3997 75.7077 12.6728C76.1445 13.0005 76.6361 13.1644 77.2917 13.1644C77.8927 13.1644 78.4389 13.0005 78.8758 12.6728C79.3134 12.345 79.5861 11.9081 79.8042 11.3619C80.023 10.8156 80.1324 10.2148 80.1324 9.50463C80.1324 8.84921 80.023 8.24833 79.8042 7.70208C79.5861 7.15585 79.3134 6.71887 78.8758 6.39113C78.4389 6.06338 77.9474 5.89951 77.2917 5.89951C76.6908 5.89951 76.1445 6.06338 75.7624 6.33652C75.3255 6.66423 75.052 7.04659 74.8337 7.59283C74.6154 8.13908 74.5061 8.73996 74.5061 9.45L74.4515 9.50463Z" fill="#03045E"/>
<path fill-rule="evenodd" clip-rule="evenodd" d="M65.7123 10.3239C65.9309 10.2147 66.2041 10.1054 66.477 9.99619C66.8595 9.88694 67.2964 9.83231 67.7335 9.72306C68.2251 9.66844 68.6619 9.61381 69.1537 9.55919L69.9731 9.44994C69.9731 9.99619 69.973 10.3239 69.8637 10.8702C69.7545 11.3072 69.5905 11.7441 69.372 12.0719C69.0991 12.4542 68.7712 12.7274 68.3343 12.8912C67.8972 13.1097 67.4057 13.219 66.8595 13.219C66.3677 13.219 65.9855 13.1644 65.7123 13.0005C65.4393 12.8366 65.2208 12.6181 65.0568 12.3996C64.9476 12.1811 64.8382 11.908 64.8382 11.6349C64.8382 11.3072 64.8929 11.0341 65.0568 10.8156C65.2208 10.5971 65.3847 10.4332 65.6576 10.2693L65.7123 10.3239ZM66.7502 14.3114C67.6243 14.3114 68.3889 14.093 69.0444 13.7106C69.4813 13.4375 69.8091 13.0551 70.1367 12.6181H70.1913V14.0383H71.2839V8.46669C71.2839 8.13902 71.2839 7.81127 71.2293 7.48352C71.1746 7.15577 71.1199 6.88267 71.0107 6.60954C70.7924 6.00869 70.3553 5.57171 69.8091 5.29858C69.2629 4.97086 68.5526 4.8616 67.7335 4.8616C66.7502 4.8616 65.9309 5.08009 65.3301 5.51706C64.729 5.95407 64.2921 6.55492 64.0736 7.37427L65.2754 7.70202C65.4393 7.10115 65.7669 6.66418 66.1495 6.39105C66.5863 6.11794 67.0778 5.95407 67.6789 5.95407C68.5526 5.95407 69.2083 6.17256 69.5359 6.60954C69.8091 6.88267 69.9184 7.31965 70.0277 7.81127V8.35752L69.099 8.46669C68.5526 8.52139 68.0065 8.63057 67.4603 8.68527C66.9141 8.79444 66.4224 8.84907 65.9309 8.95832C65.4937 9.06764 65.1115 9.23144 64.729 9.44994C64.4014 9.66844 64.1282 9.94156 63.9096 10.3239C63.6913 10.6517 63.6367 11.0887 63.6367 11.5802C63.6367 12.0719 63.746 12.5089 63.9642 12.8912C64.1828 13.2736 64.5107 13.6014 65.0022 13.8745C65.4393 14.093 66.0401 14.2569 66.6956 14.2569L66.7502 14.3114Z" fill="#03045E"/>
</g>
<path d="M3.65981 22.4303C3.46381 22.4303 3.28251 22.3948 3.11591 22.3237C2.95176 22.2527 2.80721 22.1534 2.68226 22.026C2.55976 21.8986 2.46421 21.7492 2.39561 21.5777C2.32701 21.4062 2.29271 21.2188 2.29271 21.0154C2.29271 20.8121 2.32578 20.6246 2.39193 20.4531C2.46053 20.2792 2.55608 20.1297 2.67858 20.0048C2.80353 19.8774 2.94931 19.7794 3.11591 19.7108C3.28251 19.6397 3.46381 19.6042 3.65981 19.6042C3.85581 19.6042 4.03098 19.6373 4.18533 19.7034C4.34213 19.7696 4.47443 19.8578 4.58223 19.968C4.69003 20.0758 4.76721 20.1947 4.81376 20.3245L4.36541 20.534C4.31396 20.3968 4.22698 20.2841 4.10448 20.1959C3.98198 20.1052 3.83376 20.0599 3.65981 20.0599C3.48831 20.0599 3.33641 20.1003 3.20411 20.1812C3.07426 20.262 2.97258 20.3735 2.89908 20.5156C2.82803 20.6577 2.79251 20.8243 2.79251 21.0154C2.79251 21.2065 2.82803 21.3743 2.89908 21.5189C2.97258 21.661 3.07426 21.7725 3.20411 21.8533C3.33641 21.9342 3.48831 21.9746 3.65981 21.9746C3.83376 21.9746 3.98198 21.9305 4.10448 21.8423C4.22698 21.7516 4.31396 21.6377 4.36541 21.5005L4.81376 21.71C4.76721 21.8398 4.69003 21.9599 4.58223 22.0701C4.47443 22.1779 4.34213 22.2649 4.18533 22.3311C4.03098 22.3972 3.85581 22.4303 3.65981 22.4303ZM6.93575 22.4303C6.73485 22.4303 6.54743 22.3948 6.37348 22.3237C6.19953 22.2527 6.04763 22.1534 5.91778 22.026C5.78793 21.8986 5.68625 21.7492 5.61275 21.5777C5.5417 21.4037 5.50618 21.2163 5.50618 21.0154C5.50618 20.8121 5.5417 20.6246 5.61275 20.4531C5.6838 20.2816 5.78425 20.1322 5.9141 20.0048C6.04395 19.8774 6.19585 19.7794 6.3698 19.7108C6.54375 19.6397 6.7324 19.6042 6.93575 19.6042C7.1391 19.6042 7.32775 19.6397 7.5017 19.7108C7.67565 19.7818 7.82755 19.8811 7.9574 20.0085C8.08725 20.1334 8.1877 20.2816 8.25875 20.4531C8.33225 20.6246 8.369 20.8121 8.369 21.0154C8.369 21.2163 8.33225 21.4037 8.25875 21.5777C8.18525 21.7492 8.08358 21.8986 7.95373 22.026C7.82388 22.1534 7.67198 22.2527 7.49803 22.3237C7.32653 22.3948 7.1391 22.4303 6.93575 22.4303ZM6.93575 21.9746C7.0705 21.9746 7.19423 21.9513 7.30693 21.9048C7.41963 21.8558 7.51763 21.7884 7.60093 21.7026C7.68668 21.6169 7.7516 21.5152 7.7957 21.3976C7.84225 21.28 7.86553 21.1526 7.86553 21.0154C7.86553 20.8782 7.84225 20.752 7.7957 20.6369C7.7516 20.5193 7.68668 20.4176 7.60093 20.3319C7.51763 20.2437 7.41963 20.1763 7.30693 20.1297C7.19423 20.0832 7.0705 20.0599 6.93575 20.0599C6.80345 20.0599 6.68095 20.0832 6.56825 20.1297C6.45555 20.1763 6.35633 20.2437 6.27058 20.3319C6.18728 20.4176 6.12235 20.5193 6.0758 20.6369C6.02925 20.752 6.00598 20.8782 6.00598 21.0154C6.00598 21.1526 6.02925 21.28 6.0758 21.3976C6.12235 21.5152 6.18728 21.6169 6.27058 21.7026C6.35633 21.7884 6.45555 21.8558 6.56825 21.9048C6.68095 21.9513 6.80345 21.9746 6.93575 21.9746ZM9.18092 22.3862V19.6483H9.57047L11.0772 21.6769L10.8751 21.7173V19.6483H11.3749V22.3862H10.9817L9.49697 20.3429L9.68072 20.3025V22.3862H9.18092ZM12.7575 22.3862V20.0893H12.0482V19.6483H13.9592V20.0893H13.2609V22.3862H12.7575ZM14.6317 22.3862V19.6483H15.6497C15.8359 19.6483 16 19.6826 16.1421 19.7512C16.2867 19.8174 16.3994 19.9154 16.4802 20.0452C16.5611 20.1726 16.6015 20.3282 16.6015 20.5119C16.6015 20.7006 16.5562 20.8611 16.4655 20.9934C16.3773 21.1257 16.2573 21.2237 16.1054 21.2874L16.7338 22.3862H16.1678L15.4953 21.1845L15.8187 21.3756H15.1315V22.3862H14.6317ZM15.1315 20.9346H15.657C15.7477 20.9346 15.8261 20.9174 15.8922 20.8831C15.9584 20.8464 16.0098 20.7961 16.0466 20.7324C16.0833 20.6687 16.1017 20.5952 16.1017 20.5119C16.1017 20.4262 16.0833 20.3527 16.0466 20.2914C16.0098 20.2277 15.9584 20.1787 15.8922 20.1444C15.8261 20.1077 15.7477 20.0893 15.657 20.0893H15.1315V20.9346ZM17.2047 22.3862L18.1492 19.6483H18.796L19.7404 22.3862H19.1965L19.0018 21.7982H17.9434L17.7449 22.3862H17.2047ZM18.0867 21.3572H18.8584L18.4027 19.9938H18.5424L18.0867 21.3572ZM21.5876 22.4303C21.3916 22.4303 21.2103 22.3948 21.0437 22.3237C20.8796 22.2527 20.735 22.1534 20.6101 22.026C20.4876 21.8986 20.392 21.7492 20.3234 21.5777C20.2548 21.4062 20.2205 21.2188 20.2205 21.0154C20.2205 20.8121 20.2536 20.6246 20.3198 20.4531C20.3884 20.2792 20.4839 20.1297 20.6064 20.0048C20.7314 19.8774 20.8771 19.7794 21.0437 19.7108C21.2103 19.6397 21.3916 19.6042 21.5876 19.6042C21.7836 19.6042 21.9588 19.6373 22.1132 19.7034C22.27 19.7696 22.4023 19.8578 22.5101 19.968C22.6179 20.0758 22.695 20.1947 22.7416 20.3245L22.2932 20.534C22.2418 20.3968 22.1548 20.2841 22.0323 20.1959C21.9098 20.1052 21.7616 20.0599 21.5876 20.0599C21.4161 20.0599 21.2642 20.1003 21.1319 20.1812C21.0021 20.262 20.9004 20.3735 20.8269 20.5156C20.7559 20.6577 20.7203 20.8243 20.7203 21.0154C20.7203 21.2065 20.7559 21.3743 20.8269 21.5189C20.9004 21.661 21.0021 21.7725 21.1319 21.8533C21.2642 21.9342 21.4161 21.9746 21.5876 21.9746C21.7616 21.9746 21.9098 21.9305 22.0323 21.8423C22.1548 21.7516 22.2418 21.6377 22.2932 21.5005L22.7416 21.71C22.695 21.8398 22.6179 21.9599 22.5101 22.0701C22.4023 22.1779 22.27 22.2649 22.1132 22.3311C21.9588 22.3972 21.7836 22.4303 21.5876 22.4303ZM24 22.3862V20.0893H23.2907V19.6483H25.2017V20.0893H24.5034V22.3862H24ZM27.0823 22.3862V21.8717H27.5674V22.3862H27.0823ZM29.6719 22.3862V19.6483H30.1497L31.175 21.0411H30.9471L31.9504 19.6483H32.4282V22.3862H31.9247V20.2179L32.1195 20.2657L31.0794 21.6512H31.0206L30.0063 20.2657L30.1717 20.2179V22.3862H29.6719ZM33.0955 22.3862L34.0399 19.6483H34.6867L35.6312 22.3862H35.0873L34.8925 21.7982H33.8341L33.6357 22.3862H33.0955ZM33.9775 21.3572H34.7492L34.2935 19.9938H34.4332L33.9775 21.3572ZM36.3034 22.3862V19.6483H36.693L38.1997 21.6769L37.9976 21.7173V19.6483H38.4974V22.3862H38.1042L36.6195 20.3429L36.8032 20.3025V22.3862H36.3034ZM39.1707 22.3862L40.1152 19.6483H40.762L41.7065 22.3862H41.1626L40.9678 21.7982H39.9094L39.7109 22.3862H39.1707ZM40.0527 21.3572H40.8245L40.3688 19.9938H40.5084L40.0527 21.3572ZM43.5647 22.4303C43.3687 22.4303 43.1874 22.3948 43.0208 22.3237C42.8542 22.2527 42.7084 22.1534 42.5835 22.026C42.4585 21.8986 42.3605 21.7492 42.2895 21.5777C42.2209 21.4062 42.1866 21.2188 42.1866 21.0154C42.1866 20.8121 42.2196 20.6246 42.2858 20.4531C42.3544 20.2792 42.4499 20.1297 42.5724 20.0048C42.6974 19.8774 42.8432 19.7794 43.0098 19.7108C43.1764 19.6397 43.3577 19.6042 43.5537 19.6042C43.7497 19.6042 43.9248 19.6373 44.0792 19.7034C44.236 19.7696 44.3683 19.8578 44.4761 19.968C44.5839 20.0758 44.6611 20.1947 44.7076 20.3245L44.2629 20.5377C44.2115 20.3956 44.1245 20.2804 44.002 20.1922C43.8795 20.104 43.7301 20.0599 43.5537 20.0599C43.3822 20.0599 43.2303 20.1003 43.098 20.1812C42.9681 20.262 42.8664 20.3735 42.7929 20.5156C42.7219 20.6577 42.6864 20.8243 42.6864 21.0154C42.6864 21.2065 42.7231 21.3743 42.7966 21.5189C42.8726 21.661 42.9767 21.7725 43.109 21.8533C43.2413 21.9342 43.3932 21.9746 43.5647 21.9746C43.7043 21.9746 43.833 21.9476 43.9506 21.8937C44.0682 21.8374 44.1625 21.759 44.2335 21.6585C44.3046 21.5556 44.3401 21.4344 44.3401 21.2947V21.0852L44.568 21.2837H43.5537V20.8611H44.8399V21.1367C44.8399 21.3474 44.8044 21.5336 44.7333 21.6953C44.6623 21.857 44.5655 21.993 44.443 22.1032C44.323 22.211 44.187 22.2931 44.0351 22.3494C43.8832 22.4033 43.7264 22.4303 43.5647 22.4303ZM45.6029 22.3862V19.6483H47.422V20.0893H46.1027V20.7912H47.3485V21.2322H46.1027V21.9452H47.422V22.3862H45.6029ZM48.156 22.3862V19.6483H48.6338L49.6591 21.0411H49.4312L50.4345 19.6483H50.9123V22.3862H50.4088V20.2179L50.6036 20.2657L49.5635 21.6512H49.5047L48.4904 20.2657L48.6558 20.2179V22.3862H48.156ZM51.8037 22.3862V19.6483H53.6229V20.0893H52.3035V20.7912H53.5494V21.2322H52.3035V21.9452H53.6229V22.3862H51.8037ZM54.3569 22.3862V19.6483H54.7464L56.2532 21.6769L56.051 21.7173V19.6483H56.5508V22.3862H56.1576L54.6729 20.3429L54.8567 20.3025V22.3862H54.3569ZM57.9334 22.3862V20.0893H57.2241V19.6483H59.1351V20.0893H58.4369V22.3862H57.9334ZM61.0157 22.3862V21.8717H61.5008V22.3862H61.0157ZM63.6054 22.3862V19.6483H64.627C64.8132 19.6483 64.9774 19.6826 65.1195 19.7512C65.264 19.8174 65.3767 19.9154 65.4576 20.0452C65.5384 20.1726 65.5788 20.3282 65.5788 20.5119C65.5788 20.6932 65.5372 20.8488 65.4539 20.9787C65.373 21.1061 65.2616 21.2041 65.1195 21.2727C64.9774 21.3413 64.8132 21.3756 64.627 21.3756H64.1052V22.3862H63.6054ZM64.1052 20.9346H64.6344C64.725 20.9346 64.8034 20.9174 64.8696 20.8831C64.9357 20.8464 64.9872 20.7961 65.0239 20.7324C65.0607 20.6687 65.079 20.5952 65.079 20.5119C65.079 20.4262 65.0607 20.3527 65.0239 20.2914C64.9872 20.2277 64.9357 20.1787 64.8696 20.1444C64.8034 20.1077 64.725 20.0893 64.6344 20.0893H64.1052V20.9346ZM67.7046 22.4303C67.5037 22.4303 67.3163 22.3948 67.1423 22.3237C66.9684 22.2527 66.8165 22.1534 66.6866 22.026C66.5568 21.8986 66.4551 21.7492 66.3816 21.5777C66.3106 21.4037 66.275 21.2163 66.275 21.0154C66.275 20.8121 66.3106 20.6246 66.3816 20.4531C66.4527 20.2816 66.5531 20.1322 66.683 20.0048C66.8128 19.8774 66.9647 19.7794 67.1387 19.7108C67.3126 19.6397 67.5013 19.6042 67.7046 19.6042C67.908 19.6042 68.0966 19.6397 68.2706 19.7108C68.4445 19.7818 68.5964 19.8811 68.7263 20.0085C68.8561 20.1334 68.9566 20.2816 69.0276 20.4531C69.1011 20.6246 69.1379 20.8121 69.1379 21.0154C69.1379 21.2163 69.1011 21.4037 69.0276 21.5777C68.9541 21.7492 68.8524 21.8986 68.7226 22.026C68.5927 22.1534 68.4408 22.2527 68.2669 22.3237C68.0954 22.3948 67.908 22.4303 67.7046 22.4303ZM67.7046 21.9746C67.8394 21.9746 67.9631 21.9513 68.0758 21.9048C68.1885 21.8558 68.2865 21.7884 68.3698 21.7026C68.4555 21.6169 68.5205 21.5152 68.5646 21.3976C68.6111 21.28 68.6344 21.1526 68.6344 21.0154C68.6344 20.8782 68.6111 20.752 68.5646 20.6369C68.5205 20.5193 68.4555 20.4176 68.3698 20.3319C68.2865 20.2437 68.1885 20.1763 68.0758 20.1297C67.9631 20.0832 67.8394 20.0599 67.7046 20.0599C67.5723 20.0599 67.4498 20.0832 67.3371 20.1297C67.2244 20.1763 67.1252 20.2437 67.0394 20.3319C66.9561 20.4176 66.8912 20.5193 66.8447 20.6369C66.7981 20.752 66.7748 20.8782 66.7748 21.0154C66.7748 21.1526 66.7981 21.28 66.8447 21.3976C66.8912 21.5152 66.9561 21.6169 67.0394 21.7026C67.1252 21.7884 67.2244 21.8558 67.3371 21.9048C67.4498 21.9513 67.5723 21.9746 67.7046 21.9746ZM69.9498 22.3862V19.6483H70.9677C71.1539 19.6483 71.3181 19.6826 71.4602 19.7512C71.6047 19.8174 71.7174 19.9154 71.7983 20.0452C71.8791 20.1726 71.9196 20.3282 71.9196 20.5119C71.9196 20.7006 71.8742 20.8611 71.7836 20.9934C71.6954 21.1257 71.5753 21.2237 71.4234 21.2874L72.0519 22.3862H71.4859L70.8134 21.1845L71.1368 21.3756H70.4496V22.3862H69.9498ZM70.4496 20.9346H70.9751C71.0657 20.9346 71.1441 20.9174 71.2103 20.8831C71.2764 20.8464 71.3279 20.7961 71.3646 20.7324C71.4014 20.6687 71.4198 20.5952 71.4198 20.5119C71.4198 20.4262 71.4014 20.3527 71.3646 20.2914C71.3279 20.2277 71.2764 20.1787 71.2103 20.1444C71.1441 20.1077 71.0657 20.0893 70.9751 20.0893H70.4496V20.9346ZM73.1603 22.3862V20.0893H72.451V19.6483H74.362V20.0893H73.6637V22.3862H73.1603ZM74.6273 22.3862L75.5718 19.6483H76.2186L77.163 22.3862H76.6191L76.4244 21.7982H75.366L75.1675 22.3862H74.6273ZM75.5093 21.3572H76.281L75.8253 19.9938H75.965L75.5093 21.3572ZM77.8352 22.3862V19.6483H78.335V21.9452H79.5074V22.3862H77.8352Z" fill="black"/>
</svg>
